<svg id="visual" viewBox="0 0 900 300" width="900" height="300" xmlns="http://www.w3.org/2000/svg" xmlns:xlink="http://www.w3.org/1999/xlink" version="1.1"><g><g transform="translate(489 162)"><path d="M69 -24.8C76.7 1.5 61.6 32.8 36.8 50.8C12.1 68.8 -22.4 73.6 -42.9 58.8C-63.4 44 -69.8 9.6 -60.4 -19.1C-50.9 -47.7 -25.4 -70.7 2.6 -71.5C30.6 -72.3 61.2 -51.1 69 -24.8Z" stroke="#7A7A7A" fill="none" stroke-width="13"></path></g><g transform="translate(793 107)"><path d="M68.6 -23.6C76.7 2.5 62.5 34.6 38.7 51.5C14.8 68.4 -18.7 70.2 -39.3 55C-59.9 39.8 -67.6 7.7 -58.9 -19.3C-50.2 -46.3 -25.1 -68.2 2.6 -69.1C30.3 -69.9 60.6 -49.7 68.6 -23.6Z" stroke="#7A7A7A" fill="none" stroke-width="13"></path></g><g transform="translate(37 210)"><path d="M68.8 -25.7C76.4 1.2 61.1 32.1 37.5 48.6C13.8 65.1 -18.2 67.1 -38.1 52.6C-58 38.1 -65.8 7.1 -57.5 -20.8C-49.1 -48.7 -24.5 -73.4 3 -74.4C30.6 -75.4 61.2 -52.6 68.8 -25.7Z" stroke="#7A7A7A" fill="none" stroke-width="13"></path></g><g transform="translate(281 168)"><path d="M51.7 -16.6C59.1 6 51.8 33.6 34.1 46.2C16.5 58.8 -11.5 56.6 -30.7 42.5C-50 28.5 -60.6 2.7 -54 -18.8C-47.5 -40.3 -23.7 -57.5 -0.8 -57.2C22.2 -57 44.3 -39.3 51.7 -16.6Z" stroke="#7A7A7A" fill="none" stroke-width="13"></path></g></g></svg>