<svg xmlns="http://www.w3.org/2000/svg" xmlns:xlink="http://www.w3.org/1999/xlink" width="665.62" height="466.28" viewBox="0 0 665.62 466.28"><defs><style>.eda3b3c4-f6e8-4895-9396-fa155db518df{fill:none;}.eadb2e11-5549-4f72-8d97-9cccf3291eb0{clip-path:url(#bef6bbca-aa9b-49b1-9c81-c8d89f73c5c1);}.b58cb466-4b75-4439-8677-7e7b8ce54802{fill:#6b2975;}.eb2468f7-a9f2-4d07-92ee-394a818e61c6{fill:#fff;}.f247f5ec-f5dd-46a1-bfba-df2cbcf12640{fill:#8cc63f;}</style><clipPath id="bef6bbca-aa9b-49b1-9c81-c8d89f73c5c1"><rect class="eda3b3c4-f6e8-4895-9396-fa155db518df" x="152.36" width="360.89" height="361.67"></rect></clipPath></defs><g id="a8e31f53-a10c-4845-8879-084954452285" data-name="Layer 2"><g id="b960d1e6-e751-41c6-887c-be6826cd6a25" data-name="Layer 1"><g class="eadb2e11-5549-4f72-8d97-9cccf3291eb0"><path class="b58cb466-4b75-4439-8677-7e7b8ce54802" d="M513.15,180.83A180.24,180.24,0,0,1,331.76,360.91c-98.89-.64-179.29-81.21-179-180.79C153.08,81.29,233.42.11,333.84.57,433,1,513.11,81.49,513.15,180.83"></path></g><path class="eb2468f7-a9f2-4d07-92ee-394a818e61c6" d="M230.22,222.94a38.71,38.71,0,0,1,6.63.34,2.46,2.46,0,0,1,1.93,1.45,17.65,17.65,0,0,1,.48,2.49c.14,1,.3,2,.49,3a24.61,24.61,0,0,1,8.49-6.29,26.94,26.94,0,0,1,11.53-2.41A30,30,0,0,1,271,223.49a20.67,20.67,0,0,1,8,5.52,23.17,23.17,0,0,1,5,9.11,48.13,48.13,0,0,1,1.51,13.12v42.52a1.76,1.76,0,0,1-.27,1,1.86,1.86,0,0,1-1.18.61,18.5,18.5,0,0,1-2.69.35c-1.2.1-2.81.14-4.83.14h-.69c-2.21,0-3.93-.05-5.18-.14a19.65,19.65,0,0,1-2.76-.35,1.54,1.54,0,0,1-1.1-.61,2.07,2.07,0,0,1-.21-1V256.49c0-2.4,0-4.4-.14-6a39.73,39.73,0,0,0-.43-4.08,10.16,10.16,0,0,0-.83-2.75,10.44,10.44,0,0,0-1.38-2.08,8.9,8.9,0,0,0-3.8-2.34,16.55,16.55,0,0,0-5.45-.83,22.36,22.36,0,0,0-4.83.55,15.84,15.84,0,0,0-4.42,1.66,6.85,6.85,0,0,0-2.9,3.11,15.93,15.93,0,0,0-1,4.2,51.29,51.29,0,0,0-.23,5.94v39.9a1.76,1.76,0,0,1-.27,1,1.86,1.86,0,0,1-1.18.61,18.68,18.68,0,0,1-2.69.35c-1.2.1-2.81.14-4.83.14h-.7c-2.2,0-3.93-.05-5.17-.14a19.65,19.65,0,0,1-2.76-.35,1.56,1.56,0,0,1-1.11-.61,2.35,2.35,0,0,1-.21-1v-38.1q0-8.15-.27-16.36t-.69-13.87a3.83,3.83,0,0,1,.14-1.17c.09-.33.41-.58,1-.76a11.13,11.13,0,0,1,2.56-.42c1.15-.09,2.69-.14,4.62-.14Z"></path><path class="eb2468f7-a9f2-4d07-92ee-394a818e61c6" d="M348.4,190.91c2,0,3.63.05,4.83.14a20.39,20.39,0,0,1,2.69.34,1.9,1.9,0,0,1,1.17.62,1.69,1.69,0,0,1,.28,1v84.34c0,1.56.32,2.6,1,3.11a4.93,4.93,0,0,0,3,.76,1.38,1.38,0,0,1,1.51,1,21.78,21.78,0,0,1,.28,4.69v1.52a27,27,0,0,1-.28,4.84,2,2,0,0,1-1,1.52,29.91,29.91,0,0,1-4.56,1.17,30.32,30.32,0,0,1-5.38.48,14.34,14.34,0,0,1-7.6-1.86,10.82,10.82,0,0,1-4.4-5,24.63,24.63,0,0,1-8.49,5.72,30,30,0,0,1-22.85-.56,25.75,25.75,0,0,1-9.18-7.32,33.47,33.47,0,0,1-5.8-11.52,53.89,53.89,0,0,1-2-15.31,56.48,56.48,0,0,1,2.19-16.36,36.86,36.86,0,0,1,6.21-12.3,26.65,26.65,0,0,1,9.61-7.65A28.91,28.91,0,0,1,322,221.54a24,24,0,0,1,16.43,6.22V193a2.28,2.28,0,0,1,.21-1,1.55,1.55,0,0,1,1.1-.62,19.77,19.77,0,0,1,2.77-.34c1.24-.1,3-.14,5.17-.14Zm-9.95,53.29q-5.26-6.36-12.42-6.35-7.59,0-11.25,5.8t-3.66,16.84a33.24,33.24,0,0,0,1.32,10.22,17.71,17.71,0,0,0,3.39,6.34,10.42,10.42,0,0,0,4.69,3.11,18.14,18.14,0,0,0,5.66.88,19,19,0,0,0,5.87-1,10.14,10.14,0,0,0,4.49-2.64,6.74,6.74,0,0,0,1.51-3,19.92,19.92,0,0,0,.42-4.49Z"></path><path class="eb2468f7-a9f2-4d07-92ee-394a818e61c6" d="M398,280.23a17.26,17.26,0,0,1,2.9-4.14,1.59,1.59,0,0,1,2.2-.14,35.33,35.33,0,0,0,8.63,4.35,27.56,27.56,0,0,0,9,1.58q5.52,0,8.56-1.86t3-4.62a4.61,4.61,0,0,0-2.63-4.15,31.76,31.76,0,0,0-6.56-2.69c-2.64-.77-5.47-1.63-8.49-2.55a34.47,34.47,0,0,1-8.49-3.87,21.17,21.17,0,0,1-6.56-6.56Q397,251.52,397,244.89a21.2,21.2,0,0,1,2.19-9.74,22.38,22.38,0,0,1,6-7.38,26.64,26.64,0,0,1,9.06-4.62,39,39,0,0,1,11.32-1.58,41.84,41.84,0,0,1,12.63,1.79,33.27,33.27,0,0,1,10.14,5.11,1.57,1.57,0,0,1,.76,1.93,26.51,26.51,0,0,1-2.41,4.83l-1.24,1.94a18,18,0,0,1-2.9,4,1.67,1.67,0,0,1-2.07.07,33.43,33.43,0,0,0-6.7-3.25,22.31,22.31,0,0,0-7.38-1.17q-6.22,0-9,2.35a5.09,5.09,0,0,0-1.93,4,4.45,4.45,0,0,0,2.64,4.07,36.23,36.23,0,0,0,6.55,2.69l8.5,2.7a38.4,38.4,0,0,1,8.48,3.86,20.93,20.93,0,0,1,6.56,6.35,17.94,17.94,0,0,1,2.64,10.15,23,23,0,0,1-1.87,9.18,22.67,22.67,0,0,1-5.17,7.52q-7.87,7.59-22.78,7.59a44,44,0,0,1-14.7-2.37,35,35,0,0,1-11-5.93,2,2,0,0,1-.63-1.94,17.09,17.09,0,0,1,1.87-4.27Z"></path><path class="f247f5ec-f5dd-46a1-bfba-df2cbcf12640" d="M371.15,194.6a12,12,0,1,1-3.52,8.49A11.78,11.78,0,0,1,371.15,194.6Z"></path><path class="eb2468f7-a9f2-4d07-92ee-394a818e61c6" d="M228.21,106c1.31,0,2.39,0,3.23.08a7.72,7.72,0,0,1,2,.32,2,2,0,0,1,1.5,1.42L240,131.05c.59,2.52,1.17,5.37,1.76,8.52s1.13,6.31,1.63,9.46c.15-1.2.38-2.6.67-4.18s.59-3.18.91-4.81.63-3.24.94-4.83.61-3,.88-4.18l5.13-23.29a1.89,1.89,0,0,1,.35-.91,1.91,1.91,0,0,1,.91-.53A7.92,7.92,0,0,1,255,106c.79-.06,1.86-.08,3.23-.08h.71c1.31,0,2.38,0,3.2.12a11.42,11.42,0,0,1,1.93.31,1.71,1.71,0,0,1,1,.55,3.7,3.7,0,0,1,.39.83l5.27,23.36q.8,3.31,1.66,7.9t1.73,10c.21-1.32.46-2.78.75-4.4l.88-4.89c.29-1.63.57-3.2.83-4.7s.52-2.8.79-3.9l4.83-23.36a1.57,1.57,0,0,1,1.32-1.46,9.65,9.65,0,0,1,1.93-.27c.82-.06,1.9-.08,3.28-.08h.47a28.69,28.69,0,0,1,3.47.15,9.35,9.35,0,0,1,1.89.4c.44.16.66.37.72.63a2.6,2.6,0,0,1,0,.88l-14.35,53a2.16,2.16,0,0,1-.48.79,2.29,2.29,0,0,1-1,.51,12,12,0,0,1-2,.32c-.84.07-1.92.11-3.23.11h-.95c-1.36,0-2.5,0-3.39-.08a11.71,11.71,0,0,1-2.13-.27,2.43,2.43,0,0,1-1.15-.56,1.54,1.54,0,0,1-.44-.82l-4-16.34c-.74-2.84-1.42-6.08-2.05-9.74s-1.16-7.38-1.58-11.17q-.41,2.77-.88,5.65t-1,5.64q-.51,2.76-1,5.25c-.34,1.66-.67,3.12-1,4.39l-3.87,16.34a2.16,2.16,0,0,1-.44.78,2,2,0,0,1-.94.52,10.49,10.49,0,0,1-1.93.31q-1.28.12-3.24.12h-1.58c-1.37,0-2.47,0-3.32-.08a9,9,0,0,1-1.93-.27,2,2,0,0,1-.94-.52,2.15,2.15,0,0,1-.44-.88l-15-53a1.41,1.41,0,0,1,0-1,1.24,1.24,0,0,1,.79-.62,7.84,7.84,0,0,1,1.93-.36q1.32-.12,3.51-.12Z"></path><path class="eb2468f7-a9f2-4d07-92ee-394a818e61c6" d="M309.72,146.12a8.33,8.33,0,0,0,3,5.48,9.7,9.7,0,0,0,6.11,1.75,22.3,22.3,0,0,0,5.52-.66,39.9,39.9,0,0,0,5.84-2,1.11,1.11,0,0,1,1.27.2,6.58,6.58,0,0,1,1.34,2.64l.63,1.89a10.93,10.93,0,0,1,.67,3,1.34,1.34,0,0,1-.83,1.18,31.37,31.37,0,0,1-7.66,3,33.79,33.79,0,0,1-8.2.95,24.91,24.91,0,0,1-8.64-1.42A17.86,17.86,0,0,1,302.1,158a18.69,18.69,0,0,1-4.22-6.67,25.22,25.22,0,0,1-1.5-9,27.55,27.55,0,0,1,1.38-8.87,20,20,0,0,1,4-7,17.78,17.78,0,0,1,6.35-4.54,21.13,21.13,0,0,1,8.48-1.62,19.74,19.74,0,0,1,8.17,1.58,16.09,16.09,0,0,1,5.88,4.42,19,19,0,0,1,3.55,6.75,29,29,0,0,1,1.18,8.48,11.84,11.84,0,0,1-.35,3.82,1.38,1.38,0,0,1-1.38.76Zm12.86-7.91a16.71,16.71,0,0,0-.44-3.15,8.13,8.13,0,0,0-1.1-2.59,5.53,5.53,0,0,0-1.9-1.76,5.59,5.59,0,0,0-2.72-.64,5.88,5.88,0,0,0-4.58,2,10.38,10.38,0,0,0-2.19,6.09Z"></path><path class="f247f5ec-f5dd-46a1-bfba-df2cbcf12640" d="M391.89,69.92c1.15-1.2,2.26-2.45,3.51-3.58a38.28,38.28,0,0,1,14-8.54c7.76-2.52,15.25-1.67,22.58,1.74a24.83,24.83,0,0,1,7.85,6.19,42,42,0,0,1,9.93,17.54,38.87,38.87,0,0,1-.64,22.28,60,60,0,0,1-8.86,17.09A112,112,0,0,1,423,141.26a229.14,229.14,0,0,1-29.7,21.52,2.29,2.29,0,0,1-2.87,0,242.31,242.31,0,0,1-25.79-18.17A122.74,122.74,0,0,1,345,124.91a64.19,64.19,0,0,1-10-17.84,40.69,40.69,0,0,1-2.37-16.69,38.46,38.46,0,0,1,5.58-17.13,47.55,47.55,0,0,1,8.43-10.31,20,20,0,0,1,5.21-3.43,29.79,29.79,0,0,1,29.1,1.3A43.2,43.2,0,0,1,391,69.12l.63.67a1.27,1.27,0,0,0,.22.13"></path><path class="eb2468f7-a9f2-4d07-92ee-394a818e61c6" d="M380.44,222.94c2,0,3.63.05,4.83.13a20,20,0,0,1,2.69.35,1.92,1.92,0,0,1,1.18.62,1.73,1.73,0,0,1,.27,1v68.75a1.76,1.76,0,0,1-.27,1,1.84,1.84,0,0,1-1.18.61,18.5,18.5,0,0,1-2.69.35c-1.2.1-2.81.14-4.83.14h-.69c-2.21,0-3.93-.05-5.18-.14a19.84,19.84,0,0,1-2.76-.35,1.54,1.54,0,0,1-1.1-.61,2.07,2.07,0,0,1-.21-1V225a2.29,2.29,0,0,1,.21-1,1.55,1.55,0,0,1,1.1-.62,21.47,21.47,0,0,1,2.76-.35c1.24-.08,3-.13,5.18-.13Z"></path><path class="b58cb466-4b75-4439-8677-7e7b8ce54802" d="M10.14,408.68a35.76,35.76,0,0,1,6.45.52,14.84,14.84,0,0,1,5.19,1.95,9.92,9.92,0,0,1,3.46,3.76,15,15,0,0,1-1,13.95,13.88,13.88,0,0,1-6.62,4.76l2.92,5.63c1.07,2.17,2.19,4.2,3.32,6.09a68.64,68.64,0,0,0,3.84,5.86.63.63,0,0,1-.43.68,5.16,5.16,0,0,1-2,.3H24.14A4.78,4.78,0,0,1,22,451.8a2.82,2.82,0,0,1-1.07-.77,47.5,47.5,0,0,1-2.75-4.61l-2.55-4.89-3.74-7.17H5.74V451.5c0,.46-.82.68-2.47.68H2.61C.88,452.18,0,452,0,451.5V408.68Zm-4.4,21.15h5.49a12.67,12.67,0,0,0,4.32-.66,7.82,7.82,0,0,0,2.94-1.79,6.83,6.83,0,0,0,1.64-2.75,10.65,10.65,0,0,0,.53-3.46,8.6,8.6,0,0,0-.94-4.28,6.84,6.84,0,0,0-2.36-2.36,8.16,8.16,0,0,0-3.1-1,25.81,25.81,0,0,0-3.16-.22H5.74Z"></path><path class="b58cb466-4b75-4439-8677-7e7b8ce54802" d="M37.33,438.15a14.14,14.14,0,0,0,.88,4.45,8.23,8.23,0,0,0,2.14,3.1,10.33,10.33,0,0,0,7.14,2.17,19,19,0,0,0,8-1.92,1.17,1.17,0,0,1,.74,0c.19,0,.47.47.77,1.24l.3.71a5.24,5.24,0,0,1,.49,1.59.79.79,0,0,1-.35.63,21.55,21.55,0,0,1-11,2.75,13.75,13.75,0,0,1-11-4.28A17,17,0,0,1,31.7,437a23.19,23.19,0,0,1,1-7,16.13,16.13,0,0,1,2.89-5.5,13.16,13.16,0,0,1,10.6-4.83A12,12,0,0,1,53,421.53a12.25,12.25,0,0,1,4.26,4.83,18.64,18.64,0,0,1,1.51,4.54,26,26,0,0,1,.5,5.13,7.65,7.65,0,0,1,0,1.79.49.49,0,0,1-.47.38Zm16.31-4.53a12.47,12.47,0,0,0-.43-3.33,9.12,9.12,0,0,0-1.38-2.88,6.68,6.68,0,0,0-5.6-2.86,8.26,8.26,0,0,0-5.69,2.17,11.35,11.35,0,0,0-3,6.9Z"></path><path class="b58cb466-4b75-4439-8677-7e7b8ce54802" d="M88.89,420.27a8.55,8.55,0,0,1,1.89.13.76.76,0,0,1,.52.66,27.82,27.82,0,0,0,.14,3.08c.14,1.35,0,2.75,0,4.2v17.72a50.37,50.37,0,0,1-.25,6.62,23.29,23.29,0,0,1-.9,4.75,11.72,11.72,0,0,1-2,3.82A13.68,13.68,0,0,1,85.26,464a14.34,14.34,0,0,1-3.9,1.73,18.33,18.33,0,0,1-4.42.55H74.49q-1.27-.12-2.52-.36a16.75,16.75,0,0,1-2.34-.61,9.73,9.73,0,0,1-1.81-.79c-.22,0-.3-.28-.3-.61a4.62,4.62,0,0,1,.35-1.51l.25-.71a6.36,6.36,0,0,1,.58-1.4.56.56,0,0,1,.44-.3,1.43,1.43,0,0,1,.66.19l.79.3a15.29,15.29,0,0,0,2.75.74,14.8,14.8,0,0,0,3,.28,10.78,10.78,0,0,0,6.23-1.65,8.23,8.23,0,0,0,3.08-5.25,20,20,0,0,0,.3-2.88v-2.91a10.18,10.18,0,0,1-4.06,2.61,15.44,15.44,0,0,1-4.76.85A13.2,13.2,0,0,1,71.66,451a11,11,0,0,1-4-3.27,14.3,14.3,0,0,1-2.39-5,23,23,0,0,1-.79-6.18,21.73,21.73,0,0,1,1.07-7.06,15.58,15.58,0,0,1,2.91-5.33,13.08,13.08,0,0,1,4.39-3.35,12.44,12.44,0,0,1,5.5-1.18,10.36,10.36,0,0,1,4.67,1,7.5,7.5,0,0,1,3.18,2.75h0V421a.61.61,0,0,1,.47-.6,5.91,5.91,0,0,1,2-.19ZM86.14,435a37.71,37.71,0,0,0-.19-4.51,7,7,0,0,0-.72-2.5,5.93,5.93,0,0,0-2.33-2.33,8.32,8.32,0,0,0-4.2-.94,7.35,7.35,0,0,0-6.27,3.14,14,14,0,0,0-2.3,8.46,13.68,13.68,0,0,0,2.06,8.24,7.19,7.19,0,0,0,6.2,2.74,10.16,10.16,0,0,0,4.43-1,8.82,8.82,0,0,0,3.32-2.55Z"></path><path class="b58cb466-4b75-4439-8677-7e7b8ce54802" d="M100.5,407.8a3.79,3.79,0,0,1,5.36-.14l.14.14a3.73,3.73,0,0,1,.07,5.28l-.07.07a3.84,3.84,0,0,1-5.5-5.35Zm2.94,12.47a5.78,5.78,0,0,1,2.15.22.58.58,0,0,1,.33.49v30.46a.63.63,0,0,1-.33.52,5.78,5.78,0,0,1-2.15.22h-.35a7.4,7.4,0,0,1-2.2-.19.57.57,0,0,1-.41-.55V421a.58.58,0,0,1,.41-.52,6.53,6.53,0,0,1,2.2-.19Z"></path><path class="b58cb466-4b75-4439-8677-7e7b8ce54802" d="M133.85,425.76a10.55,10.55,0,0,1-.71.91,3.05,3.05,0,0,1-.44.44.38.38,0,0,1-.33,0l-.28-.14a17.34,17.34,0,0,0-3.38-1.92,8.81,8.81,0,0,0-3.65-.75,11.64,11.64,0,0,0-2,.22,7.76,7.76,0,0,0-2,.69,4.79,4.79,0,0,0-1.51,1.32,3.43,3.43,0,0,0-.6,2.09,3.38,3.38,0,0,0,.57,2,4.8,4.8,0,0,0,1.49,1.38,8.88,8.88,0,0,0,2,.87l2.2.58c1.26.3,2.47.69,3.68,1.1a12.88,12.88,0,0,1,3.27,1.7,8.79,8.79,0,0,1,2.36,2.75,7.69,7.69,0,0,1,.91,3.93,9.35,9.35,0,0,1-1,4.28,9.48,9.48,0,0,1-2.74,3.13,11.48,11.48,0,0,1-3.82,1.93,17.75,17.75,0,0,1-4.7.63,16.59,16.59,0,0,1-5.49-.94,17.24,17.24,0,0,1-4.4-2.14.6.6,0,0,1-.35-.74,11.49,11.49,0,0,1,.6-1.46l.3-.65a4.6,4.6,0,0,1,.91-1.46,2,2,0,0,1,.91.19,21.42,21.42,0,0,0,3.81,1.73,13.28,13.28,0,0,0,4,.69,10.86,10.86,0,0,0,2.2-.28A8.29,8.29,0,0,0,128,447a5,5,0,0,0,1.62-1.51,4,4,0,0,0,.63-2.25,3.25,3.25,0,0,0-.66-2.06,6,6,0,0,0-1.68-1.4,10.35,10.35,0,0,0-2.22-.94c-.82-.24-1.62-.43-2.39-.6a26.64,26.64,0,0,1-4.2-1.24,9.2,9.2,0,0,1-3-1.84,7.21,7.21,0,0,1-1.78-2.55,8.88,8.88,0,0,1-.63-3.3,8.47,8.47,0,0,1,.9-4,9.87,9.87,0,0,1,2.42-3,10.93,10.93,0,0,1,3.54-1.9,13.77,13.77,0,0,1,4.32-.66,15.55,15.55,0,0,1,5.49.91,12.56,12.56,0,0,1,4.17,2.42,1,1,0,0,1,.39.79,2.44,2.44,0,0,1-.63,1.38Z"></path><path class="b58cb466-4b75-4439-8677-7e7b8ce54802" d="M147,411.31a6,6,0,0,1,2.15.22.6.6,0,0,1,.32.52v8.24H157a.44.44,0,0,1,.44.33,5.67,5.67,0,0,1,0,1.54v.5a5.82,5.82,0,0,1,0,1.56.44.44,0,0,1-.44.36h-7.61v17.83a16.76,16.76,0,0,0,.2,2.74,3.48,3.48,0,0,0,.77,1.79,4,4,0,0,0,3.1,1.07,9.36,9.36,0,0,0,2.11-.25,17,17,0,0,0,2-.52h.66a3.39,3.39,0,0,1,.44,1.1l.17.77a5.08,5.08,0,0,1,.22,1.34.85.85,0,0,1-.39.61,9.16,9.16,0,0,1-2.91,1.1,14.69,14.69,0,0,1-3.43.41,8.5,8.5,0,0,1-6.05-2,5.94,5.94,0,0,1-1.81-3.05,19.32,19.32,0,0,1-.49-4.91V424.55h-3.66a.44.44,0,0,1-.44-.36,6.78,6.78,0,0,1,0-1.56v-.5a6.52,6.52,0,0,1,0-1.53.44.44,0,0,1,.44-.33h3.79V412a.58.58,0,0,1,.39-.55,7.92,7.92,0,0,1,2.22-.2Z"></path><path class="b58cb466-4b75-4439-8677-7e7b8ce54802" d="M168.51,438.15a14.42,14.42,0,0,0,.88,4.45,8.25,8.25,0,0,0,2.15,3.1,10.31,10.31,0,0,0,7.14,2.17,19,19,0,0,0,8-1.92,1.2,1.2,0,0,1,.75,0c.19,0,.43.47.76,1.24l.31.71a5.54,5.54,0,0,1,.49,1.59.73.73,0,0,1-.36.63,21.52,21.52,0,0,1-11,2.75,13.75,13.75,0,0,1-11-4.28A17,17,0,0,1,162.91,437a23.5,23.5,0,0,1,1-7,16,16,0,0,1,2.75-5.5,13.16,13.16,0,0,1,10.6-4.83,12,12,0,0,1,6.81,1.81,12.41,12.41,0,0,1,4.26,4.83,19.08,19.08,0,0,1,1.51,4.54,25.27,25.27,0,0,1,.49,5.13,6.71,6.71,0,0,1,0,1.79.48.48,0,0,1-.46.38Zm16.32-4.53a12.54,12.54,0,0,0-.55-3.33,9.09,9.09,0,0,0-1.37-2.88,7,7,0,0,0-2.31-2.06,6.88,6.88,0,0,0-3.3-.8,8.24,8.24,0,0,0-5.68,2.17,11.29,11.29,0,0,0-3,6.9Z"></path><path class="b58cb466-4b75-4439-8677-7e7b8ce54802" d="M200.3,420.27a9.51,9.51,0,0,1,2.06.13.61.61,0,0,1,.43.58v6.24a14,14,0,0,1,4.1-5.5,7.72,7.72,0,0,1,4.86-1.81,6.63,6.63,0,0,1,1.26,0,.53.53,0,0,1,.52.41,5.83,5.83,0,0,1,0,1.32v.91a10.94,10.94,0,0,1,0,1.81.48.48,0,0,1-.54.44h0a8.28,8.28,0,0,0-2.75.47A7.92,7.92,0,0,0,208,426.5a12.15,12.15,0,0,0-1.71,1.73,24.39,24.39,0,0,0-1.43,2.06,11.4,11.4,0,0,0-1.45,5.19v15.85a.6.6,0,0,1-.33.52,5.89,5.89,0,0,1-2.17.22h-.36a7.4,7.4,0,0,1-2.2-.19.55.55,0,0,1-.38-.55V421a.59.59,0,0,1,.36-.52,6,6,0,0,1,2.11-.19Z"></path><path class="b58cb466-4b75-4439-8677-7e7b8ce54802" d="M222.13,438.15a13.56,13.56,0,0,0,.85,4.45,8.34,8.34,0,0,0,2.17,3.1,10.23,10.23,0,0,0,7.12,2.17,19.24,19.24,0,0,0,8-1.92,1.08,1.08,0,0,1,.71,0c.2,0,.47.47.8,1.24l.3.71a5.93,5.93,0,0,1,.47,1.59.73.73,0,0,1-.36.63,21.32,21.32,0,0,1-11,2.75,13.93,13.93,0,0,1-11-4.28A17,17,0,0,1,216.5,437a23.5,23.5,0,0,1,1-7,15.59,15.59,0,0,1,2.91-5.5A13.25,13.25,0,0,1,225,421a13.68,13.68,0,0,1,6-1.26,11.6,11.6,0,0,1,11,6.64,17.32,17.32,0,0,1,1.51,4.54A26,26,0,0,1,244,436a10.7,10.7,0,0,1,0,1.79.49.49,0,0,1-.5.38Zm16.32-4.53a12.46,12.46,0,0,0-.47-3.33,9,9,0,0,0-1.34-2.88,7.11,7.11,0,0,0-2.34-2.06,6.88,6.88,0,0,0-3.3-.8,8.24,8.24,0,0,0-5.68,2.17,11.29,11.29,0,0,0-3,6.9Z"></path><path class="b58cb466-4b75-4439-8677-7e7b8ce54802" d="M273.8,406.26a7.51,7.51,0,0,1,1.95.14.63.63,0,0,1,.52.63v37.6a17.81,17.81,0,0,0,0,1.79,2.08,2.08,0,0,0,.33,1,1.1,1.1,0,0,0,.66.41,6,6,0,0,0,1,0c.2,0,.33,0,.42.36a4.64,4.64,0,0,1,0,1.29v.41a6.11,6.11,0,0,1,0,1.48.72.72,0,0,1-.42.52,6.11,6.11,0,0,1-1.26.31h-1.4a4,4,0,0,1-2.5-.88,5.14,5.14,0,0,1-1.68-2.75h0a9.54,9.54,0,0,1-3.57,2.75,12.66,12.66,0,0,1-5.68,1.21,11.64,11.64,0,0,1-9.48-4.21,17.88,17.88,0,0,1-3.43-11.7,23.52,23.52,0,0,1,.9-6.51,17.59,17.59,0,0,1,2.75-5.49,13.36,13.36,0,0,1,4.59-3.79,13.74,13.74,0,0,1,6.48-1.43,12.46,12.46,0,0,1,3.79.6,11.35,11.35,0,0,1,3.05,1.38V407a.59.59,0,0,1,.49-.63,8.62,8.62,0,0,1,2.09-.14Zm-3,20.54a9.94,9.94,0,0,0-2.94-1.62,11,11,0,0,0-3.59-.63,8.07,8.07,0,0,0-6.79,3.3,14.28,14.28,0,0,0-2.53,8.82,17.34,17.34,0,0,0,.64,4.91,10.85,10.85,0,0,0,1.75,3.52,8,8,0,0,0,6.05,2.85,10.12,10.12,0,0,0,3.13-.52,6.55,6.55,0,0,0,2.74-1.54,5.51,5.51,0,0,0,1.41-2.74,34.27,34.27,0,0,0,.35-5.63Z"></path><path class="b58cb466-4b75-4439-8677-7e7b8ce54802" d="M304.48,408.68a11.33,11.33,0,0,1,2.47,0,1.39,1.39,0,0,1,.85.63l20.14,33.48V409.33c0-.43.77-.65,2.28-.65h.49c1.62,0,2.42.22,2.42.65V451.5c0,.3-.19.46-.58.55a14.09,14.09,0,0,1-2.25,0h-.19a10.74,10.74,0,0,1-2.47-.17,1.44,1.44,0,0,1-.86-.63l-20.24-33.37V451.5c0,.46-.77.68-2.31.68h-.46c-1.62,0-2.42-.22-2.42-.68V409.33c0-.27.19-.46.58-.54a12.08,12.08,0,0,1,2.25,0Z"></path><path class="b58cb466-4b75-4439-8677-7e7b8ce54802" d="M352.71,408.68a33,33,0,0,1,9.84,1.2,15.27,15.27,0,0,1,6.64,4.1,17.19,17.19,0,0,1,3.93,6.64,29,29,0,0,1,1.4,9.65A30.64,30.64,0,0,1,373,440.32a18.6,18.6,0,0,1-4.69,7.39,14.12,14.12,0,0,1-6.54,3.51,36.35,36.35,0,0,1-8.82,1H342.5v-43.5Zm-4.42,38.72h4.84a23.61,23.61,0,0,0,6-.74,10.63,10.63,0,0,0,4.89-2.74,12.79,12.79,0,0,0,3.46-5.5,26.59,26.59,0,0,0,1.13-8.07,26.07,26.07,0,0,0-.91-7.25,14.29,14.29,0,0,0-2.52-5.09,11.83,11.83,0,0,0-4.54-3.37,18.11,18.11,0,0,0-7.14-1.21h-5.19Z"></path><path class="b58cb466-4b75-4439-8677-7e7b8ce54802" d="M396,408.68c.33,0,.49.54.49,1.64V411c0,1.15-.16,1.73-.49,1.73h-4.39v35.32H396c.33,0,.49.58.49,1.73v.72c0,1.1-.16,1.67-.49,1.67H381.47a.38.38,0,0,1-.38-.3,4.89,4.89,0,0,1,0-1.43v-.66a4.89,4.89,0,0,1,0-1.43.39.39,0,0,1,.38-.3h4.42V412.77h-4.42a.36.36,0,0,1-.38-.3,4.89,4.89,0,0,1,0-1.43v-.66a4.89,4.89,0,0,1,0-1.43.34.34,0,0,1,.38-.27Z"></path><path class="b58cb466-4b75-4439-8677-7e7b8ce54802" d="M426.6,413.73a2.75,2.75,0,0,1-.93,1.15.66.66,0,0,1-.74,0,13.75,13.75,0,0,0-3.35-1.54,15,15,0,0,0-4.21-.57,9,9,0,0,0-3.32.55,6.5,6.5,0,0,0-2.31,1.45,5.56,5.56,0,0,0-1.32,2.06,6.64,6.64,0,0,0-.44,2.37,5,5,0,0,0,1.43,3.65,14.64,14.64,0,0,0,3.6,2.75c1.46.82,3,1.62,4.64,2.39a29.9,29.9,0,0,1,4.67,2.74,14.57,14.57,0,0,1,3.6,3.87,10.59,10.59,0,0,1,1.4,5.66,13.73,13.73,0,0,1-.88,5.08,10.23,10.23,0,0,1-2.61,3.93,12.25,12.25,0,0,1-4.36,2.56,18.27,18.27,0,0,1-6.05.9,25.5,25.5,0,0,1-7-.93,15.82,15.82,0,0,1-5.19-2.47c-.5-.41-.36-1.24.35-2.47l.42-.72a4,4,0,0,1,1-1,.7.7,0,0,1,.74,0,17.25,17.25,0,0,0,4.59,2.17,15.44,15.44,0,0,0,4.47.79,12.82,12.82,0,0,0,3.49-.46,9.07,9.07,0,0,0,2.75-1.32,7,7,0,0,0,1.89-2.14,6,6,0,0,0,.69-3,6.43,6.43,0,0,0-1.4-4.29,14.59,14.59,0,0,0-3.57-2.93,44.77,44.77,0,0,0-4.64-2.34A28.3,28.3,0,0,1,409.3,429a13.77,13.77,0,0,1-3.57-3.57,9.28,9.28,0,0,1-1.4-5.3,12.27,12.27,0,0,1,1-5.08,11.27,11.27,0,0,1,2.75-3.8,12.59,12.59,0,0,1,4-2.36,14.75,14.75,0,0,1,4.84-.79,17.94,17.94,0,0,1,2.74.19,19.82,19.82,0,0,1,2.75.6,16.91,16.91,0,0,1,2.75,1,10.07,10.07,0,0,1,2.14,1.27c.22.16.27.44.16.85a5.77,5.77,0,0,1-.52,1.26Z"></path><path class="b58cb466-4b75-4439-8677-7e7b8ce54802" d="M461.71,408.68a31.32,31.32,0,0,1,6.4.6,13.65,13.65,0,0,1,5.16,2.11,10,10,0,0,1,3.43,4,14.29,14.29,0,0,1,1.27,6.38,19.07,19.07,0,0,1-.69,4.86,11.75,11.75,0,0,1-2.31,4.53,12.86,12.86,0,0,1-4.45,3.35,16,16,0,0,1-7,1.35h-3.19a22.46,22.46,0,0,1-3.1-.28v16c0,.46-.83.68-2.47.68h-.69c-1.73,0-2.58-.22-2.58-.68V408.68Zm-4.48,22.16c.93,0,1.89.22,2.75.28h3a8.42,8.42,0,0,0,6.81-2.56,10,10,0,0,0,2.15-6.65,9.79,9.79,0,0,0-.94-4.64,6.8,6.8,0,0,0-2.36-2.55,8.22,8.22,0,0,0-3.1-1.13,23.16,23.16,0,0,0-3.22-.25h-5Z"></path><path class="b58cb466-4b75-4439-8677-7e7b8ce54802" d="M485.71,420.27a10.14,10.14,0,0,1,2.06.13.57.57,0,0,1,.41.58l.14,6.24a14.12,14.12,0,0,1,4.07-5.5,7.76,7.76,0,0,1,4.75-1.76,6.63,6.63,0,0,1,1.26,0,.72.72,0,0,1,.52.42,5.83,5.83,0,0,1,0,1.32v.9a10.94,10.94,0,0,1,0,1.81.53.53,0,0,1-.57.44,8.38,8.38,0,0,0-2.89.47,7.42,7.42,0,0,0-2.19,1.24,9.45,9.45,0,0,0-1.73,1.73c-.5.66-1,1.34-1.43,2.06a11.26,11.26,0,0,0-1.43,5.19,34.62,34.62,0,0,1-.17,3.76c-.16,1.68,0,3.38,0,5.17v6.92a.59.59,0,0,1-.33.52,5.73,5.73,0,0,1-2.14.22h-.35a8,8,0,0,1-2.23-.19.57.57,0,0,1-.38-.55V421a.55.55,0,0,1,.35-.53,6.32,6.32,0,0,1,2.12-.19Z"></path><path class="b58cb466-4b75-4439-8677-7e7b8ce54802" d="M526,422.68a12.74,12.74,0,0,1,3.55,5.25,21.32,21.32,0,0,1,1.23,7.55,22.61,22.61,0,0,1-1.1,7.53,14.71,14.71,0,0,1-3,5.49,11.86,11.86,0,0,1-4.72,3.27,16.93,16.93,0,0,1-6.18,1.1,12.37,12.37,0,0,1-12.61-8.29,21.41,21.41,0,0,1-1.23-7.56,23.12,23.12,0,0,1,1.1-7.52,15,15,0,0,1,3-5.5,12.36,12.36,0,0,1,4.76-3.24,16.57,16.57,0,0,1,6.15-1.1A13.15,13.15,0,0,1,526,422.68Zm-12.77,2.42a7.29,7.29,0,0,0-2.91,2.12,11,11,0,0,0-2,3.76,17.32,17.32,0,0,0-.77,5.49,23.43,23.43,0,0,0,.39,4.1,12.42,12.42,0,0,0,1.34,3.68,7.21,7.21,0,0,0,6.68,3.84,9.14,9.14,0,0,0,3.46-.66,7.43,7.43,0,0,0,2.91-2.14,11.39,11.39,0,0,0,2-3.74,18.51,18.51,0,0,0,.74-5.49,23.75,23.75,0,0,0-.39-4.12,11.88,11.88,0,0,0-1.34-3.65,7.27,7.27,0,0,0-2.56-2.75,7.72,7.72,0,0,0-4.12-1A9.29,9.29,0,0,0,513.18,425.1Z"></path><path class="b58cb466-4b75-4439-8677-7e7b8ce54802" d="M548.37,446h0c1.48-4,2.91-8.24,4.28-12.38a128.28,128.28,0,0,0,3.44-12.75.59.59,0,0,1,.41-.49,9.57,9.57,0,0,1,2.14,0,12.79,12.79,0,0,1,2.31.13c.35,0,.46.44.33,1A166.39,166.39,0,0,1,556.41,438c-1.84,5.22-3.59,9.72-5.32,13.54a1.16,1.16,0,0,1-.83.61,13.63,13.63,0,0,1-2.39,0,13,13,0,0,1-2.33,0,.91.91,0,0,1-.74-.61l-11-30.21a.5.5,0,0,1,.22-.67l.16-.05a13.42,13.42,0,0,1,2.28-.13,15.7,15.7,0,0,1,2.37.13.88.88,0,0,1,.85.53Z"></path><path class="b58cb466-4b75-4439-8677-7e7b8ce54802" d="M567.32,407.8a3.79,3.79,0,0,1,5.36-.14l.13.14a3.73,3.73,0,0,1,.08,5.28l-.08.07a3.79,3.79,0,0,1-5.36.14l-.13-.14a3.73,3.73,0,0,1-.07-5.28A.46.46,0,0,1,567.32,407.8Zm2.94,12.47a5.73,5.73,0,0,1,2.14.22.58.58,0,0,1,.33.49v30.46a.6.6,0,0,1-.33.52,5.73,5.73,0,0,1-2.14.22h-.39a7.71,7.71,0,0,1-2.19-.19.57.57,0,0,1-.39-.55V421a.57.57,0,0,1,.39-.52,6.73,6.73,0,0,1,2.19-.19Z"></path><path class="b58cb466-4b75-4439-8677-7e7b8ce54802" d="M604.54,406.26a7.51,7.51,0,0,1,2,.14.6.6,0,0,1,.52.63v37.6a17.81,17.81,0,0,0,0,1.79,3,3,0,0,0,.33,1,1.06,1.06,0,0,0,.69.41,5.68,5.68,0,0,0,1,0c.2,0,.33,0,.42.36a4.29,4.29,0,0,1,.13,1.29v.41a5.63,5.63,0,0,1-.13,1.48.72.72,0,0,1-.42.52,5,5,0,0,1-1.26.31h-1.4a4,4,0,0,1-2.5-.88,5.3,5.3,0,0,1-1.68-2.75h0a9.54,9.54,0,0,1-3.57,2.75,12.54,12.54,0,0,1-5.66,1.21,11.65,11.65,0,0,1-9.5-4.21,18,18,0,0,1-3.43-11.7,23.52,23.52,0,0,1,.9-6.51,17.17,17.17,0,0,1,2.75-5.49,13,13,0,0,1,4.37-3.49,13.74,13.74,0,0,1,6.48-1.43,12.17,12.17,0,0,1,3.79.61,11,11,0,0,1,3,1.37V407a.6.6,0,0,1,.52-.63,8.62,8.62,0,0,1,2.09-.14Zm-3,20.54a9.39,9.39,0,0,0-2.94-1.62,11,11,0,0,0-3.6-.63,8.09,8.09,0,0,0-6.78,3.3,14.25,14.25,0,0,0-2.5,8.82,16.64,16.64,0,0,0,.63,4.91,10.52,10.52,0,0,0,1.73,3.52,8,8,0,0,0,6,2.85,10.55,10.55,0,0,0,3.15-.52,6.46,6.46,0,0,0,2.59-1.54,5.5,5.5,0,0,0,1.4-2.74,30.32,30.32,0,0,0,.35-5.63Z"></path><path class="b58cb466-4b75-4439-8677-7e7b8ce54802" d="M620.72,438.15a13.31,13.31,0,0,0,.85,4.45,8.11,8.11,0,0,0,2.17,3.1,10.19,10.19,0,0,0,7.11,2.17,19.32,19.32,0,0,0,8-1.92,1.08,1.08,0,0,1,.71,0c.19,0,.47.47.8,1.24l.3.71a6.32,6.32,0,0,1,.47,1.59.76.76,0,0,1-.36.63,21.36,21.36,0,0,1-11,2.75,13.94,13.94,0,0,1-11-4.28,17,17,0,0,1-3.7-11.57,23.49,23.49,0,0,1,1-7,16.2,16.2,0,0,1,2.92-5.5,13.15,13.15,0,0,1,4.56-3.57,13.66,13.66,0,0,1,6-1.26,11.62,11.62,0,0,1,11,6.64,18.09,18.09,0,0,1,1.51,4.54,26,26,0,0,1,.49,5.13,10.7,10.7,0,0,1,0,1.79.48.48,0,0,1-.49.38ZM637,433.62a12.45,12.45,0,0,0-.46-3.33,9,9,0,0,0-1.35-2.88,7,7,0,0,0-2.33-2.06,6.91,6.91,0,0,0-3.3-.8,8.26,8.26,0,0,0-5.69,2.17,11.35,11.35,0,0,0-3,6.9Z"></path><path class="b58cb466-4b75-4439-8677-7e7b8ce54802" d="M652.5,420.27a10.14,10.14,0,0,1,2.06.13.59.59,0,0,1,.41.58v6.24a14.17,14.17,0,0,1,4.09-5.5,7.78,7.78,0,0,1,4.75-1.76,6.74,6.74,0,0,1,1.27,0,.67.67,0,0,1,.49.42,4.17,4.17,0,0,1,0,1.32v.9a7.83,7.83,0,0,1,0,1.81.49.49,0,0,1-.54.44h0a8.29,8.29,0,0,0-2.88.47,7.47,7.47,0,0,0-2.2,1.24,10.11,10.11,0,0,0-1.73,1.73c-.49.66-1,1.34-1.43,2.06a11.5,11.5,0,0,0-1.43,5.19,36.77,36.77,0,0,1-.16,3.76c-.17,1.68,0,3.38,0,5.17v6.92a.6.6,0,0,1-.33.52,5.73,5.73,0,0,1-2.14.22h-.36a7.85,7.85,0,0,1-2.22-.19.58.58,0,0,1-.39-.55V421a.56.56,0,0,1,.36-.53,6.26,6.26,0,0,1,2.11-.19Z"></path></g></g></svg>