<svg id="visual" viewBox="0 0 600 900" width="600" height="900" xmlns="http://www.w3.org/2000/svg" xmlns:xlink="http://www.w3.org/1999/xlink" version="1.1"><rect x="0" y="0" width="600" height="900" fill="#6366B8"></rect><defs><linearGradient id="grad1_0" x1="0%" y1="0%" x2="100%" y2="100%"><stop offset="30%" stop-color="#6366b8" stop-opacity="1"></stop><stop offset="70%" stop-color="#6366b8" stop-opacity="1"></stop></linearGradient></defs><defs><linearGradient id="grad2_0" x1="0%" y1="0%" x2="100%" y2="100%"><stop offset="30%" stop-color="#6366b8" stop-opacity="1"></stop><stop offset="70%" stop-color="#6366b8" stop-opacity="1"></stop></linearGradient></defs><g transform="translate(600, 0)"><path d="M0 486.7C-66.1 483.3 -132.3 479.8 -186.3 449.7C-240.3 419.6 -282.1 362.7 -309.7 309.7C-337.3 256.7 -350.7 207.5 -377.9 156.5C-405 105.5 -445.9 52.8 -486.7 0L0 0Z" fill="#303FA1"></path></g><g transform="translate(0, 900)"><path d="M0 -486.7C58.9 -455.7 117.7 -424.7 161.5 -389.9C205.3 -355 233.9 -316.3 285.7 -285.7C337.4 -255.1 412.3 -232.5 449.7 -186.3C487.1 -140 486.9 -70 486.7 0L0 0Z" fill="#303FA1"></path></g></svg>